<mxfile host="app.diagrams.net" agent="Mozilla/5.0 (Windows NT 10.0; Win64; x64) AppleWebKit/537.36 (KHTML, like Gecko) Chrome/139.0.0.0 Safari/537.36" version="28.1.0">
  <diagram name="Page-1" id="9N5NVwf-e6PpJJ2RYoG-">
    <mxGraphModel dx="610" dy="601" grid="1" gridSize="10" guides="1" tooltips="1" connect="1" arrows="1" fold="1" page="1" pageScale="1" pageWidth="827" pageHeight="1169" math="0" shadow="0">
      <root>
        <mxCell id="0" />
        <mxCell id="1" parent="0" />
        <mxCell id="yDshDGb2Tbmo2s8vgQsx-3" style="edgeStyle=orthogonalEdgeStyle;rounded=0;orthogonalLoop=1;jettySize=auto;html=1;exitX=0.5;exitY=1;exitDx=0;exitDy=0;entryX=0.5;entryY=0;entryDx=0;entryDy=0;" edge="1" parent="1" source="yDshDGb2Tbmo2s8vgQsx-1" target="yDshDGb2Tbmo2s8vgQsx-2">
          <mxGeometry relative="1" as="geometry" />
        </mxCell>
        <mxCell id="yDshDGb2Tbmo2s8vgQsx-1" value="Fetch bytes" style="rounded=0;whiteSpace=wrap;html=1;" vertex="1" parent="1">
          <mxGeometry x="320" y="80" width="120" height="40" as="geometry" />
        </mxCell>
        <mxCell id="yDshDGb2Tbmo2s8vgQsx-5" style="edgeStyle=orthogonalEdgeStyle;rounded=0;orthogonalLoop=1;jettySize=auto;html=1;exitX=0.5;exitY=1;exitDx=0;exitDy=0;" edge="1" parent="1" source="yDshDGb2Tbmo2s8vgQsx-2" target="yDshDGb2Tbmo2s8vgQsx-4">
          <mxGeometry relative="1" as="geometry" />
        </mxCell>
        <mxCell id="yDshDGb2Tbmo2s8vgQsx-2" value="Decode to uop &amp;amp; rename" style="rounded=0;whiteSpace=wrap;html=1;" vertex="1" parent="1">
          <mxGeometry x="320" y="160" width="120" height="40" as="geometry" />
        </mxCell>
        <mxCell id="yDshDGb2Tbmo2s8vgQsx-8" style="edgeStyle=orthogonalEdgeStyle;rounded=0;orthogonalLoop=1;jettySize=auto;html=1;exitX=0.5;exitY=1;exitDx=0;exitDy=0;entryX=0.5;entryY=0;entryDx=0;entryDy=0;" edge="1" parent="1" source="yDshDGb2Tbmo2s8vgQsx-4" target="yDshDGb2Tbmo2s8vgQsx-7">
          <mxGeometry relative="1" as="geometry" />
        </mxCell>
        <mxCell id="yDshDGb2Tbmo2s8vgQsx-4" value="Queue uop" style="rounded=0;whiteSpace=wrap;html=1;" vertex="1" parent="1">
          <mxGeometry x="320" y="240" width="120" height="40" as="geometry" />
        </mxCell>
        <mxCell id="yDshDGb2Tbmo2s8vgQsx-10" style="edgeStyle=orthogonalEdgeStyle;rounded=0;orthogonalLoop=1;jettySize=auto;html=1;exitX=0.5;exitY=1;exitDx=0;exitDy=0;" edge="1" parent="1" source="yDshDGb2Tbmo2s8vgQsx-7" target="yDshDGb2Tbmo2s8vgQsx-9">
          <mxGeometry relative="1" as="geometry" />
        </mxCell>
        <mxCell id="yDshDGb2Tbmo2s8vgQsx-7" value="Execute uop" style="rounded=0;whiteSpace=wrap;html=1;" vertex="1" parent="1">
          <mxGeometry x="320" y="320" width="120" height="40" as="geometry" />
        </mxCell>
        <mxCell id="yDshDGb2Tbmo2s8vgQsx-9" value="Retire instruction" style="rounded=0;whiteSpace=wrap;html=1;" vertex="1" parent="1">
          <mxGeometry x="320" y="400" width="120" height="40" as="geometry" />
        </mxCell>
      </root>
    </mxGraphModel>
  </diagram>
</mxfile>
